<svg aria-hidden="true" style="position: absolute; width: 0; height: 0; overflow: hidden;" version="1.1" xmlns="http://www.w3.org/2000/svg" xmlns:xlink="http://www.w3.org/1999/xlink">
<defs>
<symbol id="icon-add" viewBox="0 0 32 32">
<path d="M14.864 17.136h-7.261c-0.321 0-0.59-0.11-0.808-0.329s-0.327-0.49-0.327-0.812c0-0.322 0.109-0.591 0.327-0.806s0.488-0.323 0.808-0.323h7.261v-7.261c0-0.32 0.11-0.591 0.329-0.812s0.49-0.332 0.812-0.332c0.322 0 0.591 0.111 0.806 0.332s0.323 0.492 0.323 0.812v7.261h7.261c0.32 0 0.591 0.11 0.812 0.329s0.332 0.49 0.332 0.812c0 0.322-0.111 0.591-0.332 0.806s-0.492 0.323-0.812 0.323h-7.261v7.261c0 0.321-0.11 0.59-0.329 0.808s-0.49 0.327-0.812 0.327c-0.322 0-0.591-0.109-0.806-0.327s-0.323-0.488-0.323-0.808v-7.261z"></path>
</symbol>
<symbol id="icon-arrow-forward" viewBox="0 0 32 32">
<path stroke-linejoin="miter" stroke-linecap="butt" stroke-miterlimit="4" stroke-width="1.3333" d="M15.993 6.253c0.095 0.001 0.177 0.023 0.259 0.081l0.082 0.070 9.264 9.264c0.071 0.072 0.105 0.128 0.121 0.167v0.001c0.020 0.048 0.031 0.102 0.031 0.165s-0.012 0.116-0.031 0.163v0.001c-0.016 0.038-0.050 0.094-0.121 0.167l-9.272 9.264c-0.122 0.12-0.227 0.155-0.337 0.155-0.108-0-0.204-0.033-0.315-0.147l-0.007-0.007-0.069-0.081c-0.056-0.079-0.075-0.157-0.075-0.243s0.020-0.163 0.075-0.242l0.069-0.081 8.482-8.482h-17.88c-0.163-0-0.259-0.047-0.34-0.128h-0.001c-0.081-0.081-0.128-0.179-0.128-0.341s0.046-0.26 0.128-0.341h0.001c0.081-0.081 0.177-0.127 0.34-0.128h17.88l-8.474-8.474c-0.082-0.082-0.124-0.16-0.141-0.246l-0.008-0.090c-0.001-0.12 0.034-0.218 0.141-0.326l0.001-0.001c0.107-0.107 0.205-0.143 0.324-0.142z"></path>
</symbol>
<symbol id="icon-arrow-back" viewBox="0 0 32 32">
<path stroke-linejoin="miter" stroke-linecap="butt" stroke-miterlimit="4" stroke-width="1.3333" d="M16.010 6.249c0.114 0 0.212 0.035 0.322 0.145 0.11 0.115 0.145 0.217 0.145 0.332-0 0.116-0.035 0.214-0.145 0.324l-8.482 8.482h17.88c0.162 0 0.262 0.047 0.348 0.132 0.083 0.082 0.129 0.177 0.129 0.337s-0.046 0.255-0.129 0.337c-0.085 0.084-0.186 0.131-0.348 0.132h-17.88l8.474 8.473c0.11 0.11 0.147 0.212 0.148 0.335v0.001c0.001 0.089-0.019 0.167-0.074 0.246l-0.069 0.082c-0.107 0.108-0.204 0.143-0.323 0.142-0.126-0.001-0.23-0.041-0.341-0.151l-9.264-9.264c-0.071-0.072-0.105-0.128-0.121-0.167v-0.001c-0.020-0.048-0.031-0.102-0.031-0.165s0.012-0.116 0.031-0.163v-0.001c0.016-0.038 0.050-0.095 0.121-0.167l9.267-9.267c0.121-0.116 0.227-0.152 0.342-0.152z"></path>
</symbol>
<symbol id="icon-close" viewBox="0 0 32 32">
<path stroke-linejoin="miter" stroke-linecap="butt" stroke-miterlimit="4" stroke-width="1.3333" d="M23.466 7.9c0.219 0 0.355 0.065 0.462 0.172s0.172 0.242 0.172 0.461c0 0.219-0.065 0.355-0.172 0.462l-7.005 7.005 7.005 7.004c0.107 0.107 0.172 0.243 0.172 0.462s-0.065 0.355-0.172 0.462-0.243 0.172-0.462 0.172c-0.219-0-0.355-0.065-0.462-0.172l-7.004-7.005-7.005 7.005c-0.107 0.107-0.243 0.172-0.462 0.172s-0.354-0.065-0.461-0.172c-0.107-0.107-0.172-0.243-0.172-0.462s0.065-0.355 0.172-0.462l7.004-7.004-7.004-7.005c-0.107-0.107-0.172-0.243-0.172-0.462s0.065-0.354 0.172-0.461 0.242-0.172 0.461-0.172c0.219 0 0.355 0.065 0.462 0.172l7.005 7.004 7.004-7.004c0.107-0.107 0.243-0.172 0.462-0.172z"></path>
</symbol>
<symbol id="icon-facebook" viewBox="0 0 32 32">
<path d="M29.333 16.405c0-7.409-5.969-13.415-13.333-13.415s-13.333 6.006-13.333 13.415c0 6.696 4.876 12.245 11.25 13.252v-9.374h-3.385v-3.878h3.385v-2.955c0-3.362 1.991-5.219 5.036-5.219 1.459 0 2.985 0.262 2.985 0.262v3.301h-1.681c-1.656 0-2.173 1.034-2.173 2.095v2.516h3.698l-0.591 3.878h-3.107v9.374c6.374-1.006 11.25-6.556 11.25-13.252z"></path>
</symbol>
<symbol id="icon-instagram" viewBox="0 0 32 32">
<path d="M15.998 6.161c3.206 0 3.585 0.014 4.846 0.071 1.172 0.052 1.804 0.248 2.226 0.412 0.558 0.216 0.961 0.478 1.378 0.895 0.422 0.422 0.679 0.82 0.9 1.378 0.164 0.422 0.361 1.059 0.412 2.226 0.056 1.266 0.071 1.645 0.071 4.847s-0.014 3.585-0.071 4.847c-0.052 1.172-0.248 1.804-0.412 2.227-0.216 0.558-0.478 0.961-0.895 1.377-0.422 0.422-0.82 0.679-1.378 0.9-0.422 0.164-1.060 0.361-2.226 0.412-1.266 0.056-1.645 0.071-4.847 0.071s-3.585-0.014-4.847-0.071c-1.172-0.052-1.804-0.248-2.226-0.412-0.558-0.216-0.961-0.478-1.378-0.895-0.422-0.422-0.679-0.82-0.9-1.378-0.164-0.422-0.361-1.060-0.412-2.226-0.056-1.266-0.071-1.645-0.071-4.847s0.014-3.585 0.071-4.847c0.052-1.172 0.248-1.804 0.412-2.226 0.216-0.558 0.478-0.961 0.895-1.378 0.422-0.422 0.82-0.679 1.378-0.9 0.422-0.164 1.059-0.361 2.226-0.412 1.261-0.056 1.641-0.071 4.847-0.071h0.001zM15.998 4.001c-3.258 0-3.665 0.014-4.945 0.071-1.275 0.056-2.151 0.262-2.91 0.558-0.792 0.309-1.462 0.717-2.127 1.387-0.67 0.666-1.078 1.336-1.387 2.123-0.295 0.764-0.502 1.636-0.558 2.91-0.056 1.285-0.071 1.692-0.071 4.949s0.014 3.665 0.071 4.945c0.056 1.275 0.262 2.151 0.558 2.91 0.31 0.792 0.717 1.462 1.387 2.127 0.665 0.665 1.336 1.078 2.123 1.383 0.764 0.295 1.636 0.502 2.91 0.558 1.279 0.056 1.687 0.071 4.945 0.071s3.666-0.014 4.945-0.071c1.275-0.056 2.151-0.262 2.91-0.558 0.787-0.305 1.458-0.717 2.123-1.383s1.078-1.336 1.383-2.123c0.295-0.764 0.502-1.635 0.558-2.91 0.056-1.279 0.071-1.687 0.071-4.945s-0.014-3.665-0.071-4.945c-0.056-1.275-0.262-2.151-0.558-2.91-0.295-0.797-0.703-1.467-1.373-2.133-0.665-0.665-1.336-1.078-2.123-1.383-0.764-0.295-1.635-0.502-2.91-0.558-1.284-0.061-1.692-0.075-4.949-0.075l-0.001 0.001z"></path>
<path d="M15.997 9.836c-3.402 0-6.163 2.76-6.163 6.163s2.76 6.163 6.163 6.163c3.403 0 6.163-2.76 6.163-6.163s-2.76-6.163-6.163-6.163zM15.997 19.997c-2.208 0-3.998-1.79-3.998-3.998s1.79-3.998 3.998-3.998c2.208 0 3.998 1.79 3.998 3.998s-1.79 3.998-3.998 3.998z"></path>
<path d="M23.842 9.592c0 0.795-0.644 1.439-1.439 1.439s-1.439-0.644-1.439-1.439 0.644-1.439 1.439-1.439c0.795 0 1.439 0.644 1.439 1.439z"></path>
</symbol>
<symbol id="icon-logo" viewBox="0 0 95 32">
<path d="M16.321 19.95c-0.038-0.075-0.068-0.133-0.098-0.191-0.369-0.708-1.258-1.168-2.048-1.060-0.678 0.093-1.243 0.657-1.442 1.453-0.214 0.858-0.059 1.686 0.249 2.49 0.504 1.312 1.301 2.434 2.283 3.427 0.679 0.687 1.221 0.675 1.89-0.024 0.928-0.97 1.682-2.059 2.204-3.3 0.308-0.731 0.535-1.485 0.569-2.284 0.025-0.578-0.050-1.134-0.378-1.63-0.418-0.63-1.104-0.815-1.78-0.483-0.42 0.207-0.752 0.515-1.014 0.898-0.15 0.22-0.282 0.452-0.436 0.703zM29.395 23.638c-0.015 1.082-0.259 2.112-0.757 3.070-0.845 1.624-2.068 2.884-3.705 3.728-1.614 0.832-3.267 0.927-4.957 0.265-0.686-0.269-1.37-0.547-2.039-0.855-1.215-0.56-2.425-0.555-3.668-0.090-0.873 0.327-1.759 0.625-2.654 0.884-0.927 0.268-1.881 0.366-2.848 0.256-0.836-0.095-1.542-0.466-2.154-1.026-0.78-0.715-1.405-1.549-1.799-2.533-0.505-1.261-0.384-2.478 0.352-3.627 0.576-0.9 1.353-1.618 2.106-2.36 0.547-0.54 1.083-1.094 1.587-1.674 0.582-0.669 0.929-1.477 1.217-2.306 0.267-0.77 0.51-1.548 0.774-2.319 0.191-0.557 0.54-1.020 0.886-1.49 0.832-1.13 2.018-1.625 3.329-1.916 1.553-0.345 2.907 0.1 4.061 1.121 0.711 0.628 1.326 1.365 1.987 2.049 1.127 1.166 2.322 2.255 3.661 3.175 0.666 0.458 1.366 0.868 2.027 1.333 0.946 0.666 1.744 1.474 2.23 2.546 0.255 0.562 0.356 1.157 0.364 1.77z"></path>
<path d="M14.146 7.599c0.003 0.866-0.151 1.801-0.561 2.679-0.439 0.94-1.074 1.683-2.119 1.972-0.86 0.238-1.653 0.046-2.393-0.416-0.973-0.608-1.632-1.49-2.121-2.504-0.711-1.473-0.985-3.032-0.839-4.661 0.086-0.962 0.358-1.862 0.896-2.68 0.927-1.411 2.593-1.809 4.042-0.951 0.94 0.557 1.599 1.37 2.099 2.32 0.682 1.294 1.007 2.679 0.996 4.24z"></path>
<path d="M24.264 5.019c0.002 1.764-0.324 3.245-1.127 4.599-0.449 0.757-1.023 1.402-1.816 1.817-1.16 0.606-2.437 0.384-3.347-0.564-0.721-0.75-1.112-1.664-1.321-2.663-0.362-1.728-0.175-3.416 0.437-5.058 0.296-0.795 0.729-1.522 1.351-2.108 0.573-0.541 1.226-0.964 2.039-1.032 1.035-0.086 1.848 0.353 2.497 1.128 0.669 0.799 1.004 1.747 1.17 2.758 0.072 0.436 0.093 0.88 0.117 1.123z"></path>
<path d="M0 13.524c0.014-0.788 0.165-1.529 0.633-2.171 0.612-0.84 1.469-1.15 2.482-1.086 1.024 0.064 1.897 0.507 2.68 1.131 1.395 1.112 2.317 2.532 2.684 4.289 0.162 0.777 0.175 1.562-0.097 2.319-0.467 1.301-1.534 1.974-2.923 1.866-0.865-0.067-1.625-0.413-2.324-0.905-1.505-1.061-2.474-2.503-2.965-4.266-0.105-0.378-0.116-0.783-0.17-1.176z"></path>
<path d="M31.666 11.066c-0.233 2.447-1.229 4.339-3.16 5.702-0.536 0.378-1.139 0.597-1.798 0.664-1.114 0.113-2.127-0.514-2.545-1.587-0.368-0.943-0.347-1.908-0.115-2.869 0.445-1.849 1.439-3.342 3.001-4.437 0.691-0.485 1.476-0.682 2.319-0.612 0.98 0.082 1.809 0.817 2.096 1.899 0.116 0.437 0.149 0.896 0.203 1.24z"></path>
<path d="M77.57 19.184h2.253l-2.97 3.594 3.232 3.902h-2.32l-3.064-3.802v3.802h-2.045v-7.497h2.045v3.641l2.87-3.641z"></path>
<path d="M71.241 22.918c0 0.626-0.085 1.18-0.255 1.663-0.165 0.483-0.409 0.892-0.731 1.227-0.317 0.331-0.702 0.581-1.153 0.751-0.447 0.17-0.952 0.255-1.515 0.255-0.528 0-1.013-0.085-1.455-0.255-0.438-0.17-0.82-0.42-1.147-0.751-0.322-0.335-0.572-0.744-0.751-1.227-0.174-0.483-0.261-1.037-0.261-1.663 0-0.831 0.148-1.535 0.442-2.112s0.715-1.015 1.261-1.314 1.196-0.449 1.951-0.449c0.702 0 1.323 0.15 1.864 0.449 0.545 0.3 0.972 0.738 1.281 1.314 0.313 0.577 0.469 1.281 0.469 2.112zM66.058 22.918c0 0.492 0.054 0.905 0.161 1.241s0.275 0.588 0.503 0.758c0.228 0.17 0.525 0.255 0.892 0.255 0.362 0 0.655-0.085 0.878-0.255 0.228-0.17 0.393-0.422 0.496-0.758 0.107-0.335 0.161-0.749 0.161-1.241 0-0.496-0.054-0.907-0.161-1.234-0.103-0.331-0.268-0.579-0.496-0.744s-0.525-0.248-0.892-0.248c-0.541 0-0.934 0.186-1.18 0.557-0.241 0.371-0.362 0.928-0.362 1.67z"></path>
<path d="M62.556 19.184v7.497h-2.052v-5.961h-2.716v5.961h-2.045v-7.497h6.813z"></path>
<path d="M50.788 19.029c1.006 0 1.777 0.219 2.313 0.657s0.805 1.104 0.805 1.998v4.995h-1.428l-0.396-1.019h-0.054c-0.215 0.268-0.434 0.487-0.657 0.657s-0.48 0.295-0.771 0.376c-0.291 0.080-0.644 0.121-1.059 0.121-0.443 0-0.84-0.085-1.194-0.255-0.349-0.17-0.624-0.429-0.825-0.778-0.201-0.353-0.302-0.8-0.302-1.341 0-0.796 0.279-1.381 0.838-1.757 0.559-0.38 1.397-0.59 2.514-0.63l1.301-0.040v-0.329c0-0.393-0.103-0.682-0.308-0.865s-0.492-0.275-0.858-0.275c-0.362 0-0.718 0.051-1.066 0.154s-0.697 0.232-1.046 0.389l-0.677-1.381c0.398-0.21 0.843-0.376 1.334-0.496 0.496-0.121 1.008-0.181 1.536-0.181zM51.874 23.207l-0.791 0.027c-0.662 0.018-1.122 0.136-1.381 0.355-0.255 0.219-0.382 0.507-0.382 0.865 0 0.313 0.092 0.536 0.275 0.671 0.183 0.13 0.422 0.195 0.718 0.195 0.438 0 0.807-0.13 1.106-0.389 0.304-0.259 0.456-0.628 0.456-1.106v-0.617z"></path>
<path d="M45.678 26.68h-2.072v-8.073h-2.401c-0.054 0.42-0.112 0.878-0.174 1.375s-0.127 0.997-0.194 1.502c-0.067 0.505-0.139 0.986-0.215 1.442-0.072 0.456-0.143 0.856-0.215 1.2-0.116 0.572-0.275 1.060-0.476 1.462-0.197 0.398-0.467 0.702-0.811 0.912-0.34 0.21-0.784 0.315-1.334 0.315-0.183 0-0.36-0.014-0.53-0.040-0.166-0.027-0.32-0.063-0.463-0.107v-1.703c0.116 0.040 0.232 0.074 0.349 0.101 0.116 0.022 0.244 0.034 0.382 0.034 0.179 0 0.326-0.058 0.443-0.174 0.121-0.121 0.228-0.324 0.322-0.61 0.094-0.291 0.188-0.691 0.282-1.2 0.040-0.224 0.094-0.539 0.161-0.945 0.067-0.411 0.143-0.892 0.228-1.442 0.085-0.554 0.172-1.158 0.261-1.81 0.094-0.653 0.183-1.332 0.268-2.038h6.189v9.803z"></path>
<path d="M91.739 6.474c1.006 0 1.777 0.219 2.313 0.657s0.805 1.104 0.805 1.998v4.995h-1.428l-0.396-1.019h-0.054c-0.215 0.268-0.434 0.487-0.657 0.657s-0.481 0.295-0.771 0.375c-0.29 0.080-0.644 0.121-1.059 0.121-0.442 0-0.84-0.085-1.194-0.255-0.349-0.17-0.624-0.429-0.825-0.778-0.201-0.353-0.302-0.8-0.302-1.341 0-0.796 0.279-1.381 0.838-1.757 0.559-0.38 1.397-0.59 2.514-0.63l1.301-0.040v-0.329c0-0.393-0.103-0.682-0.308-0.865s-0.492-0.275-0.858-0.275c-0.362 0-0.718 0.051-1.066 0.154s-0.697 0.232-1.046 0.389l-0.677-1.381c0.398-0.21 0.843-0.375 1.334-0.496 0.496-0.121 1.008-0.181 1.536-0.181zM92.825 10.652l-0.791 0.027c-0.662 0.018-1.122 0.136-1.381 0.355-0.255 0.219-0.382 0.507-0.382 0.865 0 0.313 0.092 0.536 0.275 0.671 0.183 0.13 0.422 0.194 0.718 0.194 0.438 0 0.807-0.13 1.106-0.389 0.304-0.259 0.456-0.628 0.456-1.106v-0.617z"></path>
<path d="M85.355 6.629h2.253l-2.971 3.594 3.232 3.902h-2.32l-3.064-3.802v3.802h-2.045v-7.497h2.045v3.641l2.87-3.641z"></path>
<path d="M73.668 6.629v2.883h2.856v-2.883h2.045v7.497h-2.045v-3.091h-2.856v3.091h-2.045v-7.497h2.045z"></path>
<path d="M63.978 6.629v2.964c0 0.152-0.007 0.344-0.020 0.577-0.009 0.228-0.022 0.46-0.040 0.697s-0.036 0.449-0.054 0.637c-0.018 0.188-0.031 0.315-0.040 0.382l3.46-5.257h2.461v7.497h-1.978v-2.991c0-0.246 0.009-0.516 0.027-0.811 0.018-0.3 0.038-0.581 0.060-0.845s0.038-0.463 0.047-0.597l-3.447 5.244h-2.454v-7.497h1.978z"></path>
<path d="M60.874 8.164h-2.454v5.961h-2.045v-5.961h-2.461v-1.536h6.96v1.536z"></path>
<path d="M49.716 6.474c1.006 0 1.777 0.219 2.313 0.657s0.805 1.104 0.805 1.998v4.995h-1.428l-0.396-1.019h-0.054c-0.215 0.268-0.434 0.487-0.657 0.657s-0.481 0.295-0.771 0.375c-0.291 0.080-0.644 0.121-1.059 0.121-0.443 0-0.84-0.085-1.194-0.255-0.349-0.17-0.624-0.429-0.825-0.778-0.201-0.353-0.302-0.8-0.302-1.341 0-0.796 0.279-1.381 0.838-1.757 0.559-0.38 1.397-0.59 2.514-0.63l1.301-0.040v-0.329c0-0.393-0.103-0.682-0.308-0.865s-0.492-0.275-0.858-0.275c-0.362 0-0.718 0.051-1.066 0.154s-0.697 0.232-1.046 0.389l-0.677-1.381c0.398-0.21 0.843-0.375 1.334-0.496 0.496-0.121 1.008-0.181 1.536-0.181zM50.802 10.652l-0.791 0.027c-0.662 0.018-1.122 0.136-1.381 0.355-0.255 0.219-0.382 0.507-0.382 0.865 0 0.313 0.092 0.536 0.275 0.671 0.183 0.13 0.422 0.194 0.717 0.194 0.438 0 0.807-0.13 1.106-0.389 0.304-0.259 0.456-0.628 0.456-1.106v-0.617z"></path>
<path d="M45.847 14.125h-2.374l-2.28-3.708-2.28 3.708h-2.226l3.252-5.056-3.044-4.747h2.293l2.112 3.527 2.072-3.527h2.24l-3.078 4.861 3.312 4.942z"></path>
</symbol>
<symbol id="icon-menu" viewBox="0 0 32 32">
<path d="M4.936 24.295c-0.321 0-0.59-0.11-0.808-0.329s-0.327-0.493-0.327-0.82c0-0.322 0.109-0.591 0.327-0.807s0.488-0.323 0.808-0.323h22.127c0.321 0 0.591 0.11 0.812 0.329s0.331 0.49 0.331 0.812c0 0.328-0.11 0.599-0.331 0.814s-0.492 0.323-0.812 0.323h-22.127zM4.936 17.136c-0.321 0-0.59-0.11-0.808-0.329s-0.327-0.49-0.327-0.812c0-0.322 0.109-0.591 0.327-0.806s0.488-0.323 0.808-0.323h22.127c0.321 0 0.591 0.11 0.812 0.329s0.331 0.49 0.331 0.812c0 0.322-0.11 0.591-0.331 0.806s-0.492 0.323-0.812 0.323h-22.127zM4.936 9.984c-0.321 0-0.59-0.11-0.808-0.329s-0.327-0.493-0.327-0.82c0-0.322 0.109-0.591 0.327-0.806s0.488-0.323 0.808-0.323h22.127c0.321 0 0.591 0.11 0.812 0.329s0.331 0.49 0.331 0.812c0 0.328-0.11 0.599-0.331 0.815s-0.492 0.323-0.812 0.323h-22.127z"></path>
</symbol>
<symbol id="icon-star-empty" viewBox="0 0 32 32">
<path d="M32 12.408l-11.056-1.607-4.944-10.018-4.944 10.018-11.056 1.607 8 7.798-1.889 11.011 9.889-5.199 9.889 5.199-1.889-11.011 8-7.798zM16 23.547l-6.983 3.671 1.334-7.776-5.65-5.507 7.808-1.134 3.492-7.075 3.492 7.075 7.807 1.134-5.65 5.507 1.334 7.776-6.983-3.671z"></path>
</symbol>
<symbol id="icon-star-half" viewBox="0 0 32 32">
<path d="M32 12.408l-11.056-1.607-4.944-10.018-4.944 10.018-11.056 1.607 8 7.798-1.889 11.011 9.889-5.199 9.889 5.199-1.889-11.011 8-7.798zM16 23.547l-0.029 0.015 0.029-17.837 3.492 7.075 7.807 1.134-5.65 5.507 1.334 7.776-6.983-3.671z"></path>
</symbol>
<symbol id="icon-star-full" viewBox="0 0 32 32">
<path d="M32 12.408l-11.056-1.607-4.944-10.018-4.944 10.018-11.056 1.607 8 7.798-1.889 11.011 9.889-5.199 9.889 5.199-1.889-11.011 8-7.798z"></path>
</symbol>
</defs>
</svg>
