<svg aria-hidden="true" style="position: absolute; width: 0; height: 0; overflow: hidden;" version="1.1"
    xmlns="http://www.w3.org/2000/svg" xmlns:xlink="http://www.w3.org/1999/xlink">
    <defs>

    <symbol id="icon-dot-3" viewBox="0 0 32 32">
<path d="M32 16c0 8.837-7.163 16-16 16s-16-7.163-16-16c0-8.837 7.163-16 16-16s16 7.163 16 16z"></path>
</symbol>
<symbol id="icon-dot-2" viewBox="0 0 32 32">
<path d="M32 16c0 8.837-7.163 16-16 16s-16-7.163-16-16c0-8.837 7.163-16 16-16s16 7.163 16 16z"></path>
</symbol>
<symbol id="icon-dot" viewBox="0 0 32 32">
<path d="M32 16c0 8.837-7.163 16-16 16s-16-7.163-16-16c0-8.837 7.163-16 16-16s16 7.163 16 16z"></path>
</symbol>
<symbol id="icon-left" viewBox="0 0 32 32">
<path d="M5.818 17.33l11.002 11.004q0.51 0.51 0.516 1.2c0 0.006 0 0.014 0 0.021 0 0.465-0.193 0.884-0.504 1.182l-0.001 0.001c-0.293 0.314-0.709 0.51-1.172 0.51-0.011 0-0.023-0-0.034-0l0.002 0c-0.474-0.002-0.901-0.199-1.205-0.515l-13.903-13.901c-0.32-0.298-0.52-0.722-0.52-1.193 0-0.005 0-0.009 0-0.014v0.001c-0-0.007-0-0.015-0-0.023 0-0.467 0.2-0.887 0.519-1.18l0.001-0.001 13.914-13.912c0.307-0.313 0.733-0.508 1.206-0.51h0q0.68 0 1.19 0.51c0.313 0.304 0.507 0.73 0.507 1.2s-0.194 0.896-0.506 1.2l-11.010 11.012h24.4c0.013-0 0.027-0.001 0.042-0.001 0.925 0 1.674 0.749 1.674 1.674 0 0.011-0 0.021-0 0.032l0-0.002c0 0.009 0 0.020 0 0.031 0 0.925-0.749 1.674-1.674 1.674-0.015 0-0.030-0-0.044-0.001l0.002 0z"></path>
</symbol>
<symbol id="icon-right" viewBox="0 0 32 32">
<path d="M26.11 17.324h-24.406c-0.016 0.001-0.034 0.001-0.053 0.001-0.912 0-1.652-0.74-1.652-1.652 0-0.018 0-0.036 0.001-0.053l-0 0.003c-0.001-0.016-0.001-0.034-0.001-0.053 0-0.912 0.74-1.652 1.652-1.652 0.019 0 0.037 0 0.056 0.001l-0.003-0h24.406l-11.004-11.004c-0.317-0.302-0.515-0.728-0.516-1.2v-0c-0-0.010-0-0.022-0-0.033 0-0.461 0.193-0.877 0.502-1.172l0.001-0.001c0.305-0.313 0.731-0.506 1.202-0.506 0.475 0 0.904 0.197 1.209 0.514l13.9 13.9c0.32 0.298 0.52 0.722 0.52 1.193 0 0.005-0 0.011-0 0.016v-0.001c0 0.006 0 0.014 0 0.021 0 0.467-0.2 0.887-0.519 1.18l-0.001 0.001-13.912 13.9c-0.305 0.32-0.733 0.519-1.207 0.522h-0c-0.002 0-0.004 0-0.006 0-0.469 0-0.89-0.202-1.183-0.523l-0.001-0.001c-0.314-0.299-0.51-0.721-0.51-1.189 0-0.002 0-0.004 0-0.006v0q0-0.68 0.51-1.19z"></path>
</symbol>


        <symbol id="icon-paw-white" viewBox="0 0 32 32">
            <path fill="#f6f4f1" style="fill: var(--color1, #f6f4f1)"
                d="M16.321 19.95c-0.038-0.075-0.068-0.133-0.098-0.191-0.369-0.708-1.258-1.168-2.048-1.060-0.678 0.093-1.243 0.657-1.442 1.453-0.214 0.858-0.059 1.686 0.249 2.49 0.504 1.312 1.301 2.434 2.283 3.427 0.679 0.687 1.221 0.675 1.89-0.024 0.928-0.97 1.682-2.059 2.204-3.3 0.308-0.731 0.535-1.485 0.569-2.284 0.025-0.578-0.050-1.134-0.378-1.63-0.418-0.63-1.104-0.815-1.78-0.483-0.42 0.207-0.752 0.515-1.014 0.898-0.15 0.22-0.282 0.452-0.436 0.703zM29.395 23.638c-0.015 1.082-0.259 2.112-0.757 3.070-0.845 1.624-2.068 2.884-3.705 3.728-1.614 0.832-3.267 0.927-4.957 0.265-0.686-0.269-1.37-0.547-2.039-0.855-1.215-0.56-2.425-0.555-3.668-0.090-0.873 0.327-1.759 0.625-2.654 0.884-0.927 0.268-1.881 0.366-2.848 0.256-0.836-0.095-1.542-0.466-2.154-1.026-0.78-0.715-1.405-1.549-1.799-2.533-0.505-1.261-0.384-2.478 0.352-3.627 0.576-0.9 1.353-1.618 2.106-2.36 0.547-0.54 1.083-1.094 1.587-1.674 0.582-0.669 0.929-1.477 1.217-2.306 0.267-0.77 0.51-1.548 0.774-2.319 0.191-0.557 0.54-1.020 0.886-1.49 0.832-1.13 2.018-1.625 3.329-1.916 1.553-0.345 2.907 0.1 4.061 1.121 0.711 0.628 1.326 1.365 1.987 2.049 1.127 1.166 2.322 2.255 3.661 3.175 0.666 0.458 1.366 0.868 2.027 1.333 0.946 0.666 1.744 1.474 2.23 2.546 0.255 0.562 0.356 1.157 0.364 1.77z">
            </path>
            <path fill="#f6f4f1" style="fill: var(--color1, #f6f4f1)"
                d="M14.146 7.599c0.003 0.866-0.151 1.801-0.561 2.679-0.439 0.94-1.074 1.683-2.119 1.972-0.86 0.238-1.653 0.046-2.393-0.416-0.973-0.608-1.632-1.49-2.121-2.504-0.711-1.473-0.985-3.032-0.839-4.661 0.086-0.962 0.358-1.862 0.896-2.68 0.927-1.411 2.593-1.809 4.042-0.951 0.94 0.557 1.599 1.37 2.099 2.32 0.682 1.294 1.007 2.679 0.996 4.24z">
            </path>
            <path fill="#f6f4f1" style="fill: var(--color1, #f6f4f1)"
                d="M24.264 5.019c0.002 1.764-0.324 3.245-1.127 4.599-0.449 0.757-1.023 1.402-1.816 1.817-1.16 0.606-2.437 0.384-3.347-0.564-0.721-0.75-1.112-1.664-1.321-2.663-0.362-1.728-0.175-3.416 0.437-5.058 0.296-0.795 0.729-1.522 1.351-2.108 0.573-0.541 1.226-0.964 2.039-1.032 1.035-0.086 1.848 0.353 2.497 1.128 0.669 0.799 1.004 1.747 1.17 2.758 0.072 0.436 0.093 0.88 0.117 1.123z">
            </path>
            <path fill="#f6f4f1" style="fill: var(--color1, #f6f4f1)"
                d="M0 13.524c0.014-0.788 0.165-1.529 0.633-2.171 0.612-0.84 1.469-1.15 2.482-1.086 1.024 0.064 1.897 0.507 2.68 1.131 1.395 1.112 2.317 2.532 2.684 4.289 0.162 0.777 0.175 1.562-0.097 2.319-0.467 1.301-1.534 1.974-2.923 1.866-0.865-0.067-1.625-0.413-2.324-0.905-1.505-1.061-2.474-2.503-2.965-4.266-0.105-0.378-0.116-0.783-0.17-1.176z">
            </path>
            <path fill="#f6f4f1" style="fill: var(--color1, #f6f4f1)"
                d="M31.666 11.066c-0.233 2.447-1.229 4.339-3.16 5.702-0.536 0.378-1.139 0.597-1.798 0.664-1.114 0.113-2.127-0.514-2.545-1.587-0.368-0.943-0.347-1.908-0.115-2.869 0.445-1.849 1.439-3.342 3.001-4.437 0.691-0.485 1.476-0.682 2.319-0.612 0.98 0.082 1.809 0.817 2.096 1.899 0.116 0.437 0.149 0.896 0.203 1.24z">
            </path>
        </symbol>
        <symbol id="icon-paw-black" viewBox="0 0 32 32">
            <path
                d="M16.468 20.13c-0.039-0.076-0.068-0.134-0.098-0.192-0.372-0.715-1.27-1.179-2.066-1.069-0.684 0.094-1.254 0.663-1.455 1.466-0.216 0.866-0.060 1.701 0.252 2.513 0.508 1.324 1.313 2.456 2.304 3.458 0.686 0.693 1.232 0.681 1.907-0.024 0.937-0.979 1.697-2.078 2.224-3.33 0.311-0.738 0.54-1.498 0.574-2.305 0.025-0.583-0.050-1.144-0.382-1.644-0.421-0.635-1.114-0.822-1.796-0.487-0.424 0.208-0.759 0.52-1.023 0.906-0.152 0.221-0.284 0.456-0.44 0.709zM29.659 23.851c-0.016 1.091-0.262 2.131-0.764 3.097-0.853 1.639-2.087 2.91-3.738 3.761-1.628 0.84-3.297 0.936-5.002 0.267-0.692-0.271-1.382-0.552-2.057-0.863-1.226-0.565-2.447-0.56-3.701-0.090-0.881 0.33-1.774 0.631-2.677 0.892-0.935 0.271-1.898 0.369-2.874 0.258-0.844-0.096-1.556-0.47-2.174-1.035-0.787-0.721-1.418-1.563-1.815-2.556-0.51-1.272-0.387-2.5 0.355-3.66 0.581-0.908 1.365-1.632 2.125-2.381 0.552-0.545 1.093-1.104 1.602-1.689 0.587-0.675 0.937-1.49 1.228-2.327 0.27-0.777 0.515-1.562 0.781-2.34 0.192-0.562 0.545-1.030 0.894-1.503 0.839-1.141 2.037-1.64 3.359-1.934 1.567-0.348 2.933 0.101 4.098 1.132 0.717 0.634 1.338 1.377 2.005 2.068 1.137 1.176 2.343 2.275 3.694 3.203 0.673 0.462 1.378 0.876 2.045 1.345 0.954 0.672 1.759 1.487 2.251 2.569 0.257 0.567 0.359 1.167 0.368 1.786z">
            </path>
            <path
                d="M14.273 7.668c0.003 0.874-0.152 1.817-0.566 2.703-0.443 0.948-1.084 1.698-2.138 1.99-0.867 0.24-1.668 0.047-2.415-0.42-0.982-0.613-1.646-1.503-2.14-2.527-0.717-1.487-0.994-3.059-0.847-4.703 0.087-0.971 0.361-1.878 0.904-2.704 0.935-1.423 2.617-1.826 4.079-0.96 0.948 0.562 1.613 1.382 2.118 2.341 0.689 1.306 1.017 2.703 1.005 4.279z">
            </path>
            <path
                d="M24.483 5.065c0.001 1.78-0.327 3.274-1.137 4.64-0.453 0.764-1.032 1.415-1.832 1.833-1.17 0.612-2.459 0.387-3.377-0.569-0.727-0.757-1.122-1.678-1.333-2.687-0.365-1.744-0.177-3.447 0.441-5.103 0.299-0.802 0.735-1.535 1.363-2.127 0.578-0.545 1.237-0.973 2.058-1.041 1.044-0.087 1.864 0.356 2.52 1.138 0.676 0.806 1.013 1.762 1.18 2.783 0.072 0.44 0.094 0.888 0.119 1.133z">
            </path>
            <path
                d="M0 13.646c0.014-0.795 0.166-1.543 0.639-2.191 0.618-0.847 1.482-1.16 2.504-1.096 1.034 0.065 1.914 0.511 2.704 1.141 1.407 1.122 2.338 2.555 2.708 4.327 0.164 0.784 0.176 1.576-0.098 2.339-0.472 1.313-1.547 1.991-2.95 1.883-0.872-0.068-1.64-0.416-2.345-0.913-1.519-1.070-2.496-2.526-2.991-4.304-0.106-0.382-0.117-0.79-0.171-1.187z">
            </path>
            <path
                d="M31.951 11.166c-0.235 2.469-1.24 4.378-3.188 5.753-0.541 0.382-1.15 0.603-1.814 0.67-1.124 0.114-2.146-0.519-2.568-1.601-0.371-0.952-0.35-1.926-0.116-2.895 0.449-1.865 1.452-3.372 3.028-4.477 0.698-0.489 1.489-0.689 2.34-0.618 0.989 0.083 1.825 0.825 2.114 1.916 0.117 0.441 0.15 0.904 0.205 1.251z">
            </path>
        </symbol>
        <symbol id="icon-Facebook" viewBox="0 0 32 32">
            <path
                d="M29.333 16.405c0-7.409-5.969-13.415-13.333-13.415s-13.333 6.006-13.333 13.415c0 6.696 4.876 12.245 11.25 13.252v-9.374h-3.385v-3.878h3.385v-2.955c0-3.362 1.991-5.219 5.036-5.219 1.459 0 2.985 0.262 2.985 0.262v3.301h-1.681c-1.656 0-2.173 1.034-2.173 2.095v2.516h3.698l-0.591 3.878h-3.107v9.374c6.374-1.006 11.25-6.556 11.25-13.252z">
            </path>
        </symbol>
        <symbol id="icon-Instagram" viewBox="0 0 32 32">
            <path
                d="M15.998 6.161c3.206 0 3.585 0.014 4.846 0.071 1.172 0.052 1.804 0.248 2.226 0.412 0.558 0.216 0.961 0.478 1.378 0.895 0.422 0.422 0.679 0.82 0.9 1.378 0.164 0.422 0.361 1.059 0.412 2.226 0.056 1.266 0.071 1.645 0.071 4.847s-0.014 3.585-0.071 4.847c-0.052 1.172-0.248 1.804-0.412 2.227-0.216 0.558-0.478 0.961-0.895 1.377-0.422 0.422-0.82 0.679-1.378 0.9-0.422 0.164-1.060 0.361-2.226 0.412-1.266 0.056-1.645 0.071-4.847 0.071s-3.585-0.014-4.847-0.071c-1.172-0.052-1.804-0.248-2.226-0.412-0.558-0.216-0.961-0.478-1.378-0.895-0.422-0.422-0.679-0.82-0.9-1.378-0.164-0.422-0.361-1.060-0.412-2.226-0.056-1.266-0.071-1.645-0.071-4.847s0.014-3.585 0.071-4.847c0.052-1.172 0.248-1.804 0.412-2.226 0.216-0.558 0.478-0.961 0.895-1.378 0.422-0.422 0.82-0.679 1.378-0.9 0.422-0.164 1.059-0.361 2.226-0.412 1.261-0.056 1.641-0.071 4.847-0.071h0.001zM15.998 4.001c-3.258 0-3.665 0.014-4.945 0.071-1.275 0.056-2.151 0.262-2.91 0.558-0.792 0.309-1.462 0.717-2.127 1.387-0.67 0.666-1.078 1.336-1.387 2.123-0.295 0.764-0.502 1.636-0.558 2.91-0.056 1.285-0.071 1.692-0.071 4.949s0.014 3.665 0.071 4.945c0.056 1.275 0.262 2.151 0.558 2.91 0.31 0.792 0.717 1.462 1.387 2.127 0.665 0.665 1.336 1.078 2.123 1.383 0.764 0.295 1.636 0.502 2.91 0.558 1.279 0.056 1.687 0.071 4.945 0.071s3.666-0.014 4.945-0.071c1.275-0.056 2.151-0.262 2.91-0.558 0.787-0.305 1.458-0.717 2.123-1.383s1.078-1.336 1.383-2.123c0.295-0.764 0.502-1.635 0.558-2.91 0.056-1.279 0.071-1.687 0.071-4.945s-0.014-3.665-0.071-4.945c-0.056-1.275-0.262-2.151-0.558-2.91-0.295-0.797-0.703-1.467-1.373-2.133-0.665-0.665-1.336-1.078-2.123-1.383-0.764-0.295-1.635-0.502-2.91-0.558-1.284-0.061-1.692-0.075-4.949-0.075l-0.001 0.001z">
            </path>
            <path
                d="M15.997 9.836c-3.402 0-6.163 2.76-6.163 6.163s2.76 6.163 6.163 6.163c3.403 0 6.163-2.76 6.163-6.163s-2.76-6.163-6.163-6.163zM15.997 19.997c-2.208 0-3.998-1.79-3.998-3.998s1.79-3.998 3.998-3.998c2.208 0 3.998 1.79 3.998 3.998s-1.79 3.998-3.998 3.998z">
            </path>
            <path
                d="M23.842 9.592c0 0.795-0.644 1.439-1.439 1.439s-1.439-0.644-1.439-1.439 0.644-1.439 1.439-1.439c0.795 0 1.439 0.644 1.439 1.439z">
            </path>
        </symbol>
        <symbol id="icon-arrow_forward" viewBox="0 0 32 32">
            <path stroke-linejoin="miter" stroke-linecap="butt" stroke-miterlimit="4" stroke-width="1.3333"
                d="M15.993 6.253c0.095 0.001 0.177 0.023 0.259 0.081l0.082 0.070 9.264 9.264c0.071 0.072 0.105 0.128 0.121 0.167v0.001c0.020 0.048 0.031 0.102 0.031 0.165s-0.012 0.116-0.031 0.163v0.001c-0.016 0.038-0.050 0.094-0.121 0.167l-9.272 9.264c-0.122 0.12-0.227 0.155-0.337 0.155-0.108-0-0.204-0.033-0.315-0.147l-0.007-0.007-0.069-0.081c-0.056-0.079-0.075-0.157-0.075-0.243s0.020-0.163 0.075-0.242l0.069-0.081 8.482-8.482h-17.88c-0.163-0-0.259-0.047-0.34-0.128h-0.001c-0.081-0.081-0.128-0.179-0.128-0.341s0.046-0.26 0.128-0.341h0.001c0.081-0.081 0.177-0.127 0.34-0.128h17.88l-8.474-8.474c-0.082-0.082-0.124-0.16-0.141-0.246l-0.008-0.090c-0.001-0.12 0.034-0.218 0.141-0.326l0.001-0.001c0.107-0.107 0.205-0.143 0.324-0.142z">
            </path>
        </symbol>
        <symbol id="icon-arrow_back" viewBox="0 0 32 32">
            <path stroke-linejoin="miter" stroke-linecap="butt" stroke-miterlimit="4" stroke-width="1.3333"
                d="M16.010 6.249c0.114 0 0.212 0.035 0.322 0.145 0.11 0.115 0.145 0.217 0.145 0.332-0 0.116-0.035 0.214-0.145 0.324l-8.482 8.482h17.88c0.162 0 0.262 0.047 0.348 0.132 0.083 0.082 0.129 0.177 0.129 0.337s-0.046 0.255-0.129 0.337c-0.085 0.084-0.186 0.131-0.348 0.132h-17.88l8.474 8.473c0.11 0.11 0.147 0.212 0.148 0.335v0.001c0.001 0.089-0.019 0.167-0.074 0.246l-0.069 0.082c-0.107 0.108-0.204 0.143-0.323 0.142-0.126-0.001-0.23-0.041-0.341-0.151l-9.264-9.264c-0.071-0.072-0.105-0.128-0.121-0.167v-0.001c-0.020-0.048-0.031-0.102-0.031-0.165s0.012-0.116 0.031-0.163v-0.001c0.016-0.038 0.050-0.095 0.121-0.167l9.267-9.267c0.121-0.116 0.227-0.152 0.342-0.152z">
            </path>
        </symbol>
        <symbol id="icon-add" viewBox="0 0 32 32">
            <path
                d="M14.864 17.136h-7.261c-0.321 0-0.59-0.11-0.808-0.329s-0.327-0.49-0.327-0.812c0-0.322 0.109-0.591 0.327-0.806s0.488-0.323 0.808-0.323h7.261v-7.261c0-0.32 0.11-0.591 0.329-0.812s0.49-0.332 0.812-0.332c0.322 0 0.591 0.111 0.806 0.332s0.323 0.492 0.323 0.812v7.261h7.261c0.32 0 0.591 0.11 0.812 0.329s0.332 0.49 0.332 0.812c0 0.322-0.111 0.591-0.332 0.806s-0.492 0.323-0.812 0.323h-7.261v7.261c0 0.321-0.11 0.59-0.329 0.808s-0.49 0.327-0.812 0.327c-0.322 0-0.591-0.109-0.806-0.327s-0.323-0.488-0.323-0.808v-7.261z">
            </path>
        </symbol>
        <symbol id="icon-close" viewBox="0 0 32 32">
            <path stroke-linejoin="miter" stroke-linecap="butt" stroke-miterlimit="4" stroke-width="1.3333"
                d="M23.466 7.9c0.219 0 0.355 0.065 0.462 0.172s0.172 0.242 0.172 0.461c0 0.219-0.065 0.355-0.172 0.462l-7.005 7.005 7.005 7.004c0.107 0.107 0.172 0.243 0.172 0.462s-0.065 0.355-0.172 0.462-0.243 0.172-0.462 0.172c-0.219-0-0.355-0.065-0.462-0.172l-7.004-7.005-7.005 7.005c-0.107 0.107-0.243 0.172-0.462 0.172s-0.354-0.065-0.461-0.172c-0.107-0.107-0.172-0.243-0.172-0.462s0.065-0.355 0.172-0.462l7.004-7.004-7.004-7.005c-0.107-0.107-0.172-0.243-0.172-0.462s0.065-0.354 0.172-0.461 0.242-0.172 0.461-0.172c0.219 0 0.355 0.065 0.462 0.172l7.005 7.004 7.004-7.004c0.107-0.107 0.243-0.172 0.462-0.172z">
            </path>
        </symbol>
        <symbol id="icon-star-outline" viewBox="0 0 32 32" fill="none">
            <path
                d="M12.0078 4.00098L14.0361 8.81934C14.328 9.51225 14.9837 9.97813 15.7275 10.0371L20.9854 10.4531L16.9893 13.835H16.9883C16.4157 14.3197 16.1618 15.086 16.3389 15.8193L17.5615 20.8848C17.5599 20.8857 17.5589 20.8872 17.5576 20.8877C17.5559 20.8869 17.5532 20.8858 17.5498 20.8838L13.041 18.1631C12.4014 17.7772 11.5986 17.7772 10.959 18.1631L6.4502 20.8838C6.44677 20.8858 6.4441 20.8869 6.44238 20.8877C6.44085 20.8871 6.43936 20.8859 6.4375 20.8848L7.66113 15.8193C7.8271 15.1321 7.61431 14.416 7.11523 13.9297L7.01172 13.835L3.01367 10.4531L8.27246 10.0371C9.01627 9.97814 9.67205 9.51246 9.96387 8.81934L11.9912 4.00098C11.9936 4.00054 11.9966 4 12 4C12.003 4 12.0056 4.00062 12.0078 4.00098Z"
                stroke="#02060A" stroke-width="2" />
        </symbol>
        <symbol id="icon-star-filled" viewBox="0 0 32 32">
            <path
                d="M14.761 4.816c0.458-1.089 2.019-1.089 2.478 0l2.705 6.425c0.193 0.459 0.63 0.772 1.132 0.812l7.021 0.556c1.19 0.094 1.672 1.561 0.766 2.328l-5.349 4.527c-0.382 0.323-0.549 0.831-0.432 1.314l1.634 6.769c0.277 1.147-0.986 2.053-2.004 1.439l-6.011-3.627c-0.429-0.259-0.969-0.259-1.399 0l-6.011 3.627c-1.018 0.615-2.281-0.292-2.004-1.439l1.634-6.769c0.117-0.483-0.050-0.991-0.432-1.314l-5.35-4.527c-0.906-0.767-0.424-2.234 0.766-2.328l7.021-0.556c0.502-0.040 0.938-0.353 1.132-0.812l2.705-6.425z">
            </path>
        </symbol>
        <symbol id="icon-star-half" viewBox="0 0 32 32" fill="none">
            <path
                d="M11.5312 3.80664C11.7032 3.39816 12.2968 3.39816 12.4688 3.80664L14.4971 8.625C14.7155 9.14358 15.2076 9.49471 15.7676 9.53906L21.0332 9.95605C21.4909 9.99232 21.6545 10.5412 21.3242 10.8213L17.3115 14.2168C16.8819 14.5804 16.6919 15.1542 16.8242 15.7021L18.0508 20.7783C18.1502 21.1902 17.6892 21.5518 17.291 21.3115H17.29L12.7832 18.5918C12.3023 18.3016 11.6977 18.3016 11.2168 18.5918L6.70898 21.3115C6.31078 21.5518 5.84983 21.1902 5.94922 20.7783L7.17578 15.7021C7.30809 15.1543 7.11814 14.5805 6.68848 14.2168L2.67578 10.8213C2.34544 10.5412 2.5091 9.99231 2.9668 9.95605L8.23242 9.53906C8.79243 9.49471 9.28456 9.14369 9.50293 8.625L11.5312 3.80664Z"
                fill="url(#paint0_linear_8242_16266)" stroke="#02060A" />
            <defs>
                <linearGradient id="paint0_linear_8242_16266" x1="2" y1="12.3716" x2="22" y2="12.3716"
                    gradientUnits="userSpaceOnUse">
                    <stop offset="0.5" stop-color="#02060A" />
                    <stop offset="0.5" stop-color="#02060A" stop-opacity="0" />
                </linearGradient>
            </defs>
        </symbol>
        <symbol id="icon-menu-burger" viewBox="0 0 32 32">
            <path
                d="M4.936 24.295c-0.321 0-0.59-0.11-0.808-0.329s-0.327-0.493-0.327-0.82c0-0.322 0.109-0.591 0.327-0.807s0.488-0.323 0.808-0.323h22.127c0.321 0 0.591 0.11 0.812 0.329s0.331 0.49 0.331 0.812c0 0.328-0.11 0.599-0.331 0.814s-0.492 0.323-0.812 0.323h-22.127zM4.936 17.136c-0.321 0-0.59-0.11-0.808-0.329s-0.327-0.49-0.327-0.812c0-0.322 0.109-0.591 0.327-0.806s0.488-0.323 0.808-0.323h22.127c0.321 0 0.591 0.11 0.812 0.329s0.331 0.49 0.331 0.812c0 0.322-0.11 0.591-0.331 0.806s-0.492 0.323-0.812 0.323h-22.127zM4.936 9.984c-0.321 0-0.59-0.11-0.808-0.329s-0.327-0.493-0.327-0.82c0-0.322 0.109-0.591 0.327-0.806s0.488-0.323 0.808-0.323h22.127c0.321 0 0.591 0.11 0.812 0.329s0.331 0.49 0.331 0.812c0 0.328-0.11 0.599-0.331 0.815s-0.492 0.323-0.812 0.323h-22.127z">
            </path>
        </symbol>
    </defs>
</svg>