<svg width="32" height="32" viewBox="0 0 32 32" fill="none" xmlns="http://www.w3.org/2000/svg">
<path d="M16.2812 19.4564C16.2476 19.3906 16.2221 19.3399 16.1959 19.2897C15.8729 18.6699 15.0948 18.2673 14.4038 18.3626C13.8105 18.4443 13.3161 18.9376 13.1424 19.634C12.9552 20.385 13.0904 21.109 13.3605 21.8129C13.8012 22.9608 14.4989 23.9425 15.3584 24.8113C15.9528 25.4122 16.4268 25.402 17.0118 24.7907C17.8241 23.942 18.4832 22.9891 18.9405 21.903C19.2101 21.2631 19.4086 20.604 19.4387 19.9042C19.4604 19.3989 19.3953 18.9122 19.1077 18.4784C18.7424 17.9276 18.1414 17.7652 17.5503 18.0561C17.1829 18.2369 16.8924 18.5068 16.6631 18.8417C16.5316 19.0337 16.4168 19.237 16.2812 19.4564ZM27.7205 22.6831C27.707 23.6296 27.4937 24.5313 27.0579 25.3691C26.3183 26.7906 25.2484 27.8923 23.8159 28.6309C22.404 29.3589 20.9569 29.4422 19.4784 28.8626C18.8782 28.6273 18.2798 28.3843 17.6946 28.1146C16.6314 27.6243 15.5726 27.629 14.4853 28.0362C13.7216 28.3222 12.9465 28.583 12.1635 28.8095C11.3524 29.0442 10.5176 29.1299 9.6714 29.0334C8.93989 28.9499 8.3219 28.6259 7.78646 28.1356C7.10356 27.5103 6.5571 26.7801 6.21229 25.9191C5.77036 24.8156 5.87654 23.7511 6.51995 22.7456C7.02364 21.9584 7.70373 21.3303 8.36256 20.6805C8.84148 20.2082 9.31034 19.7232 9.7515 19.2158C10.2604 18.6303 10.5644 17.9237 10.8163 17.1977C11.0502 16.5241 11.2626 15.8432 11.4934 15.1686C11.6601 14.6812 11.9661 14.2757 12.2684 13.8648C12.9963 12.8756 14.0345 12.4428 15.1809 12.188C16.5398 11.886 17.7241 12.2755 18.7346 13.1693C19.3564 13.7192 19.8946 14.3633 20.4734 14.9623C21.4592 15.9824 22.5049 16.9352 23.6765 17.7399C24.2596 18.1406 24.8717 18.4996 25.45 18.9067C26.2775 19.4892 26.9757 20.1959 27.4017 21.1341C27.6249 21.6255 27.713 22.1464 27.7205 22.6831Z" fill="#332C22"/>
<path d="M14.3774 8.64928C14.3797 9.4069 14.2454 10.225 13.8864 10.9937C13.5022 11.8158 12.9463 12.4661 12.0322 12.7191C11.28 12.9274 10.5856 12.7596 9.93823 12.3552C9.08656 11.8234 8.51062 11.0516 8.08229 10.1639C7.46029 8.87474 7.22057 7.51094 7.34806 6.08572C7.42336 5.24381 7.66144 4.45687 8.13182 3.74108C8.94303 2.50668 10.401 2.15778 11.6689 2.90895C12.4914 3.39633 13.0676 4.10783 13.5057 4.9389C14.1028 6.07149 14.3872 7.28282 14.3774 8.64928Z" fill="#332C22"/>
<path d="M23.2312 6.392C23.2325 7.93572 22.9476 9.23096 22.2454 10.416C21.8528 11.0787 21.3507 11.6428 20.6564 12.0056C19.6415 12.5359 18.5243 12.3416 17.7276 11.5123C17.0969 10.8558 16.7547 10.0567 16.5714 9.18215C16.2547 7.67018 16.4182 6.19325 16.9536 4.7567C17.2127 4.06144 17.5913 3.42517 18.1354 2.91189C18.6368 2.43892 19.208 2.06846 19.9198 2.00934C20.8254 1.93412 21.5364 2.31792 22.1049 2.99624C22.6907 3.69542 22.9833 4.52457 23.1285 5.40962C23.1911 5.79122 23.2099 6.18001 23.2312 6.392Z" fill="#332C22"/>
<path d="M2 13.8336C2.01253 13.1442 2.14411 12.496 2.55404 11.9337C3.08963 11.1987 3.83951 10.9277 4.72546 10.9832C5.6219 11.0394 6.385 11.4266 7.07013 11.9729C8.2905 12.946 9.0976 14.1883 9.41869 15.7254C9.56084 16.4054 9.5714 17.0918 9.33351 17.7541C8.92456 18.8929 7.99163 19.481 6.77574 19.3869C6.01928 19.3283 5.35345 19.0258 4.74251 18.5952C3.42559 17.6669 2.57772 16.4051 2.14841 14.8628C2.05623 14.5317 2.04728 14.1773 2 13.8336Z" fill="#332C22"/>
<path d="M29.7074 11.6829C29.5034 13.8243 28.6322 15.4797 26.9427 16.672C26.4735 17.0031 25.9458 17.1947 25.3695 17.2531C24.3949 17.352 23.5087 16.8033 23.1423 15.8644C22.8203 15.0391 22.839 14.1945 23.0416 13.3542C23.4314 11.7367 24.3009 10.4301 25.6673 9.4722C26.2721 9.04817 26.9584 8.87506 27.6963 8.93664C28.5541 9.00818 29.2793 9.65179 29.53 10.5983C29.6314 10.981 29.6602 11.3827 29.7074 11.6829Z" fill="#332C22"/>
</svg>
